<svg width="51" height="50" viewBox="0 0 51 50" fill="none" xmlns="http://www.w3.org/2000/svg">
<g clip-path="url(#clip0_10_36)">
<path d="M46.1188 19.8571C45.7902 8.85219 36.686 0 25.5408 0C14.3956 0 5.29135 8.85219 4.96262 19.8571L3.48193 21.3295V31.315L4.95252 32.7774V39.5809C4.95252 43.5589 8.20703 46.7952 12.2074 46.7952H14.029C14.6361 48.4973 16.2707 49.7199 18.1878 49.7199H21.129C23.0474 49.7199 24.6829 48.4955 25.289 46.7917C25.373 46.7931 25.4572 46.7952 25.5408 46.7952C32.6425 46.7952 38.5847 41.7631 39.951 35.0964H43.7969L47.5996 31.315V21.3295L46.1188 19.8571ZM25.5408 2.9247C34.2693 2.9247 41.5369 9.2595 42.9413 17.5482H39.951C38.5847 10.8814 32.6425 5.8494 25.5408 5.8494C18.439 5.8494 12.4968 10.8814 11.1306 17.5482H8.14017C9.54458 9.2595 16.8122 2.9247 25.5408 2.9247ZM36.9332 17.5482C32.1794 17.5341 28.8215 17.8219 26.0531 13.7978L24.7088 11.8438L23.5535 13.9139C21.8702 16.9301 19.6032 17.5482 16.7172 17.5482H14.1483C15.4576 12.5082 20.0689 8.7741 25.5408 8.7741C31.0126 8.7741 35.6239 12.5082 36.9332 17.5482ZM10.8349 32.1717H8.50282L6.42311 30.1036V22.5409L8.50282 20.4729H10.8349V32.1717ZM7.8937 39.5809V35.0964H11.1277C11.6813 37.8237 13.006 40.3271 14.9683 42.3378C14.5569 42.7749 14.2343 43.295 14.029 43.8705H12.2074C9.8288 43.8705 7.8937 41.9462 7.8937 39.5809ZM21.129 46.7952H18.1878C17.3768 46.7952 16.7172 46.1393 16.7172 45.3328C16.7172 44.5265 17.3768 43.8705 18.1878 43.8705H21.129C21.9399 43.8705 22.5996 44.5265 22.5996 45.3328C22.5996 46.1393 21.9399 46.7952 21.129 46.7952ZM37.3055 32.1717C37.3055 38.6224 32.0278 43.8705 25.5408 43.8705C25.4564 43.8705 25.3714 43.8688 25.2865 43.8669C24.6785 42.1667 23.0448 40.9458 21.129 40.9458C18.1094 40.9524 18.1575 40.9308 17.7811 40.9652C15.228 38.7399 13.7761 35.5703 13.7761 32.1717V20.4729H16.7172C19.3199 20.4729 22.4895 20.0462 24.943 17.0768C28.1803 20.4503 32.1363 20.4729 35.6876 20.4729H37.3055V32.1717ZM44.6584 30.1036L42.5787 32.1717H40.2466V20.4729H42.5787L44.6584 22.5409V30.1036Z" fill="#3A3A3A"/>
</g>
<defs>
<clipPath id="clip0_10_36">
<rect x="0.540833" width="50" height="49.7199" rx="15" fill="white"/>
</clipPath>
</defs>
</svg>
