<svg width="50" height="50" viewBox="0 0 50 50" fill="none" xmlns="http://www.w3.org/2000/svg">
<g clip-path="url(#clip0_10_29)">
<path d="M46.1233 25.9183V3.14978C46.1233 2.33749 45.4647 1.67896 44.6524 1.67896H5.24589C4.43361 1.67896 3.77507 2.33749 3.77507 3.14978V27.7334C3.06554 27.8368 2.3719 28.1122 1.75827 28.5678C-0.176154 29.9395 -0.633679 33.0092 0.98668 34.9023L7.61157 42.9337C11.7124 47.7332 16.0687 48.3213 22.5449 48.3213C28.1023 48.3213 30.5869 48.3458 35.4304 47.2422L40.1466 46.1141C40.9113 47.1821 42.1254 47.8738 43.4902 47.8738H45.8135C48.1219 47.8738 50 45.8954 50 43.4635V30.3154C50 27.9934 48.2874 26.086 46.1233 25.9183ZM39.5122 28.9439L37.5525 27.9486C34.3303 26.3221 30.6049 26.2619 27.3318 27.7836C26.4388 28.1349 24.4911 29.3133 23.4809 29.2739H16.6806C14.4249 29.2739 12.5897 31.109 12.5897 33.3647V34.4374C12.5771 34.424 12.5638 34.4114 12.5514 34.3978L7.69521 29.1267C7.40134 28.8077 7.07119 28.5408 6.71682 28.3267V13.7342H18.7534V19.1259C18.7534 19.9382 19.4119 20.5967 20.2242 20.5967H29.5052C30.3175 20.5967 30.976 19.9382 30.976 19.1259V13.7342H43.1817V25.9182C41.4632 26.051 40.0302 27.2804 39.5122 28.9439ZM21.6949 13.7342H28.0343V17.6551H21.6949V13.7342ZM43.1816 10.7926H30.976V4.6206H43.1817V10.7926H43.1816ZM28.0344 4.6206V10.7927H21.695V4.6206H28.0344ZM18.7533 4.6206V10.7927H6.71672V4.6206H18.7533ZM34.7477 44.3807C30.2734 45.4055 27.5788 45.364 22.5976 45.364C16.5182 45.364 13.5808 45.2658 9.88095 41.0618L3.25606 33.0304C2.10372 31.5298 4.19092 29.7585 5.53172 31.1197L10.3879 36.3909C11.6713 37.7451 13.2864 38.4905 15.277 38.5343H28.7408C29.553 38.5343 30.2116 37.8758 30.2116 37.0635C30.2116 36.2512 29.553 35.5926 28.7408 35.5926H15.5313V33.3645C15.5313 32.7309 16.0467 32.2153 16.6805 32.2153H23.4808C25.0128 32.3251 27.224 31.0458 28.5719 30.4509C31.0233 29.3111 33.8135 29.3562 36.2236 30.5727L39.3039 32.1373V43.2908L34.7477 44.3807ZM47.0584 43.4634C47.0584 44.2733 46.5 44.9321 45.8136 44.9321H43.4903C42.8039 44.9321 42.2456 44.2733 42.2456 43.4634V30.3154C42.2456 29.5056 42.804 28.8467 43.4903 28.8467H45.8136C46.5 28.8467 47.0584 29.5055 47.0584 30.3154V43.4634Z" fill="#1E1E1E"/>
</g>
<defs>
<clipPath id="clip0_10_29">
<rect width="50" height="50" rx="15" fill="white"/>
</clipPath>
</defs>
</svg>
