<svg width="50" height="40" viewBox="0 0 50 40" fill="none" xmlns="http://www.w3.org/2000/svg">
<path d="M39.507 2.97437V3.71845L40.1959 3.43731C41.1146 3.06241 42.1874 2.84375 43.3379 2.84375C45.0837 2.84375 46.646 3.34424 47.7587 4.12716C48.8731 4.91126 49.5 5.94618 49.5 7.03125C49.5 8.85398 48.7342 10.6392 47.2386 12.1935C44.8775 14.6474 41.9842 15.4413 39.5088 16.1207C39.2702 16.1861 39.0355 16.2505 38.8055 16.3153L38.6078 16.3709L38.5063 16.5494C37.0197 19.1634 33.9674 21.2886 30.084 22.3009L29.6169 22.4226L29.7222 22.8937L30.9502 28.3903L31.0375 28.7812H31.4382H31.6795C32.9662 28.7812 34.1121 29.1503 34.9232 29.721C35.736 30.2929 36.176 31.0349 36.176 31.7969V37.6562V38.1562H36.676H38.3415C38.7108 38.1562 39.0239 38.2624 39.2314 38.4084C39.4404 38.5554 39.507 38.7113 39.507 38.8281C39.507 38.9449 39.4404 39.1008 39.2314 39.2478C39.0239 39.3939 38.7108 39.5 38.3415 39.5H11.6937C11.3244 39.5 11.0113 39.3939 10.8038 39.2478C10.5948 39.1008 10.5282 38.9449 10.5282 38.8281C10.5282 38.7113 10.5948 38.5554 10.8038 38.4084C11.0113 38.2624 11.3244 38.1562 11.6937 38.1562H13.3592H13.8592V37.6562V31.7969C13.8592 31.0349 14.2992 30.2929 15.112 29.721C15.9231 29.1503 17.069 28.7812 18.3557 28.7812H18.597H18.9977L19.085 28.3903L20.3131 22.8936L20.4184 22.4225L19.9513 22.3008C16.0736 21.2901 13.0245 19.1695 11.5356 16.5606L11.4341 16.3826L11.2368 16.3271C11.0095 16.2632 10.7796 16.1997 10.5476 16.1358C7.95787 15.4216 5.11245 14.6369 2.76137 12.1935C1.26581 10.6392 0.5 8.85406 0.5 7.03125C0.5 5.94617 1.1268 4.91126 2.24117 4.12716C3.35387 3.34424 4.91615 2.84375 6.66195 2.84375C7.82628 2.84375 8.91126 3.06755 9.8369 3.45066L10.5281 3.73675V2.98867V1.17188C10.5281 1.05506 10.5947 0.899188 10.8037 0.752167C11.0112 0.606141 11.3243 0.5 11.6937 0.5H38.3415C38.7108 0.5 39.0239 0.606135 39.2314 0.752161C39.4404 0.899183 39.507 1.05506 39.507 1.17188V2.97437ZM2.83097 7.03125C2.83097 10.4234 5.70592 13.2851 9.88032 14.46L9.97652 14.4871L10.7215 14.6969L10.6065 13.9315C10.555 13.5889 10.5282 13.2417 10.5282 12.8906V7.27156V7.19905L10.5076 7.12953C10.4976 7.0958 10.4929 7.06328 10.4929 7.03125C10.4929 6.17781 9.99901 5.45491 9.30392 4.96583C8.60715 4.47556 7.6712 4.1875 6.66195 4.1875C5.65269 4.1875 4.71674 4.47556 4.01997 4.96583C3.32488 5.45491 2.83097 6.17781 2.83097 7.03125ZM33.345 38.1562H33.845V37.6562V35.3125V34.8125H33.345H16.6902H16.1902V35.3125V37.6562V38.1562H16.6902H33.345ZM33.345 33.4688H33.845V32.9688V31.7969C33.845 31.2665 33.5379 30.8366 33.1444 30.5597C32.7492 30.2816 32.2296 30.125 31.6795 30.125H31.667H31.6543H31.6415H31.6284H31.6151H31.6017H31.5881H31.5743H31.5603H31.5461H31.5318H31.5173H31.5026H31.4877H31.4727H31.4574H31.442H31.4265H31.4107H31.3948H31.3787H31.3625H31.346H31.3294H31.3127H31.2957H31.2786H31.2614H31.2439H31.2263H31.2086H31.1906H31.1725H31.1543H31.1359H31.1173H31.0986H31.0797H31.0607H31.0415H31.0221H31.0026H30.9829H30.9631H30.9431H30.923H30.9027H30.8823H30.8617H30.841H30.8201H30.7991H30.778H30.7566H30.7352H30.7136H30.6918H30.67H30.6479H30.6258H30.6035H30.581H30.5584H30.5357H30.5128H30.4898H30.4667H30.4434H30.42H30.3965H30.3728H30.349H30.3251H30.3011H30.2769H30.2525H30.2281H30.2035H30.1788H30.154H30.1291H30.104H30.0788H30.0535H30.0281H30.0025H29.9768H29.951H29.9251H29.8991H29.8729H29.8467H29.8203H29.7938H29.7672H29.7405H29.7137H29.6867H29.6597H29.6325H29.6052H29.5779H29.5504H29.5228H29.4951H29.4673H29.4394H29.4114H29.3833H29.3551H29.3268H29.2983H29.2698H29.2412H29.2125H29.1837H29.1548H29.1258H29.0967H29.0675H29.0383H29.0089H28.9794H28.9499H28.9202H28.8905H28.8607H28.8308H28.8008H28.7707H28.7405H28.7103H28.68H28.6495H28.6191H28.5885H28.5578H28.5271H28.4963H28.4654H28.4344H28.4033H28.3722H28.341H28.3098H28.2784H28.247H28.2155H28.1839H28.1523H28.1206H28.0888H28.057H28.0251H27.9931H27.9611H27.929H27.8968H27.8646H27.8323H27.7999H27.7675H27.7351H27.7025H27.6699H27.6373H27.6046H27.5718H27.539H27.5061H27.4732H27.4402H27.4072H27.3741H27.341H27.3078H27.2746H27.2413H27.208H27.1746H27.1412H27.1077H27.0742H27.0407H27.0071H26.9735H26.9398H26.9061H26.8723H26.8385H26.8047H26.7708H26.7369H26.703H26.669H26.635H26.6009H26.5669H26.5327H26.4986H26.4644H26.4302H26.396H26.3618H26.3275H26.2932H26.2588H26.2245H26.1901H26.1557H26.1213H26.0868H26.0524H26.0179H25.9834H25.9488H25.9143H25.8797H25.8451H25.8106H25.776H25.7413H25.7067H25.6721H25.6374H25.6027H25.5681H25.5334H25.4987H25.464H25.4293H25.3946H25.3598H25.3251H25.2904H25.2557H25.2209H25.1862H25.1515H25.1168H25.082H25.0473H25.0126H24.9779H24.9431H24.9084H24.8737H24.839H24.8043H24.7697H24.735H24.7003H24.6657H24.631H24.5964H24.5618H24.5272H24.4926H24.458H24.4235H24.389H24.3544H24.3199H24.2855H24.251H24.2166H24.1821H24.1477H24.1134H24.079H24.0447H24.0104H23.9761H23.9419H23.9077H23.8735H23.8393H23.8052H23.7711H23.737H23.703H23.669H23.6351H23.6011H23.5672H23.5334H23.4996H23.4658H23.432H23.3983H23.3647H23.3311H23.2975H23.264H23.2305H23.197H23.1636H23.1303H23.097H23.0637H23.0305H22.9973H22.9642H22.9312H22.8982H22.8652H22.8323H22.7994H22.7667H22.7339H22.7012H22.6686H22.636H22.6035H22.5711H22.5387H22.5064H22.4741H22.4419H22.4098H22.3777H22.3457H22.3137H22.2819H22.25H22.2183H22.1866H22.155H22.1235H22.092H22.0606H22.0293H21.9981H21.9669H21.9358H21.9048H21.8739H21.843H21.8122H21.7815H21.7509H21.7203H21.6899H21.6595H21.6292H21.599H21.5688H21.5388H21.5088H21.479H21.4492H21.4195H21.3899H21.3604H21.3309H21.3016H21.2724H21.2432H21.2142H21.1852H21.1564H21.1276H21.0989H21.0703H21.0419H21.0135H20.9852H20.9571H20.929H20.901H20.8732H20.8454H20.8177H20.7902H20.7628H20.7354H20.7082H20.6811H20.6541H20.6272H20.6004H20.5737H20.5472H20.5207H20.4944H20.4682H20.4421H20.4161H20.3902H20.3645H20.3389H20.3133H20.288H20.2627H20.2375H20.2125H20.1876H20.1629H20.1382H20.1137H20.0893H20.065H20.0409H20.0169H19.993H19.9693H19.9457H19.9222H19.8988H19.8756H19.8525H19.8296H19.8068H19.7841H19.7616H19.7392H19.7169H19.6948H19.6729H19.651H19.6293H19.6078H19.5864H19.5652H19.544H19.5231H19.5023H19.4816H19.4611H19.4407H19.4205H19.4005H19.3805H19.3608H19.3412H19.3217H19.3024H19.2833H19.2643H19.2455H19.2268H19.2083H19.19H19.1718H19.1538H19.1359H19.1182H19.1007H19.0833H19.0661H19.0491H19.0322H19.0155H18.999H18.9826H18.9664H18.9504H18.9345H18.9189H18.9034H18.888H18.8729H18.8579H18.8431H18.8285H18.814H18.7998H18.7857H18.7718H18.758H18.7445H18.7311H18.7179H18.705H18.6921H18.6795H18.6671H18.6548H18.6428H18.6309H18.6192H18.6077H18.5964H18.5853H18.5744H18.5637H18.5532H18.5429H18.5327H18.5228H18.5131H18.5035H18.4942H18.485H18.4761H18.4674H18.4588H18.4505H18.4424H18.4345H18.4267H18.4192H18.4119H18.4048H18.3979H18.3913H18.3848H18.3785H18.3725H18.3667H18.3611H18.3557C17.8056 30.125 17.286 30.2816 16.8908 30.5597C16.4973 30.8366 16.1902 31.2665 16.1902 31.7969V32.9688V33.4688H16.6902H33.345ZM21.4809 28.1722L21.3448 28.7812H21.9689H28.0663H28.6904L28.5543 28.1722L27.4522 23.2396L27.3563 22.8107L26.9186 22.8508C26.2963 22.9077 25.6618 22.9375 25.0176 22.9375C24.3733 22.9375 23.7389 22.9078 23.1166 22.8508L22.6789 22.8106L22.583 23.2396L21.4809 28.1722ZM13.3592 6.53125H12.8592V7.03125V12.8906C12.8592 15.3595 14.287 17.5472 16.49 19.0973C18.6947 20.6486 21.7125 21.5938 25.0176 21.5938C28.3227 21.5938 31.3405 20.6486 33.5452 19.0973C35.7482 17.5472 37.176 15.3595 37.176 12.8906V7.03125V6.53125H36.676H13.3592ZM36.676 5.1875H37.176V4.6875V2.34375V1.84375H36.676H13.3592H12.8592V2.34375V4.6875V5.1875H13.3592H36.676ZM40.1193 14.46L40.1194 14.46C44.294 13.2851 47.1689 10.4234 47.1689 7.03125C47.1689 6.17781 46.675 5.45491 45.9799 4.96583C45.2831 4.47556 44.3472 4.1875 43.3379 4.1875C42.3287 4.1875 41.3927 4.47556 40.696 4.96582C40.0009 5.4549 39.5069 6.17779 39.5069 7.03121V12.8906C39.5069 13.2385 39.4807 13.5825 39.4302 13.9218L39.3167 14.6857L40.0602 14.4766L40.1193 14.46Z" fill="black" stroke="black"/>
</svg>
